<?xml version="1.0" encoding="UTF-8"?>
<!DOCTYPE svg PUBLIC "-//W3C//DTD SVG 1.1//EN" "http://www.w3.org/Graphics/SVG/1.1/DTD/svg11.dtd">
<svg version="1.1" xmlns="http://www.w3.org/2000/svg" xmlns:xlink="http://www.w3.org/1999/xlink" x="0" y="0" width="593" height="503" viewBox="0, 0, 593, 503">
  <g id="Warstwa_x0020_1">
    <path d="M279.722,120.457 C265.23,125.556 257.289,132.173 261.022,141.494 C139.184,175.412 116.782,277.646 135.237,337.811 C137.644,345.659 140.799,354.249 145.033,363.122 C142.617,365.156 141.787,368.247 144.39,373.382 C141.637,373.998 139.205,374.776 136.992,375.668 C123.648,370.912 109.135,373.141 103.064,375.257 C95.965,377.731 92.006,383.041 100.178,390.598 C90.286,390.6 82.877,391.933 78.548,394.724 C75.255,396.848 73.942,400.458 76.493,405.518 C68.144,406.284 61.976,407.877 58.921,410.652 C56.391,412.951 55.455,416.983 58.274,420.186 C54.07,420.764 50.531,422.163 47.873,424.654 C37.896,424.364 30.537,426.191 27.384,429.233 C24.853,431.674 24.547,436.896 28.6,440.188 C18.964,445.388 10.893,451.13 6.306,458.078 C3.143,462.871 -0.44,471.632 8.012,473.402 C11.246,474.079 15.465,472.831 20.273,470.434 C22.815,472.843 27.525,472.578 35.351,468.471 C35.941,470.25 37.364,471.868 40.044,473.206 C44.697,475.527 51.652,477.002 59.422,477.002 C60.385,477.002 61.335,476.979 62.271,476.935 C63.513,485.181 75.819,486.635 90.833,486.426 C100.185,489.332 110.201,489.783 120.882,487.777 C127.251,492.96 142.069,493.618 149.87,492.61 C156.973,491.692 168.601,488.889 165.669,482.106 C167.678,482.553 170.188,482.885 173.2,483.102 C174.368,487.393 183.339,489.716 190.212,490.383 C197.634,491.103 209.915,490.473 216.371,486.845 C222.418,489.341 232.061,490.022 239.329,489.326 C245.64,488.721 255.001,486.679 256.923,482.211 C261.845,485.948 270.683,487.337 277.545,487.271 C283.32,487.216 292.19,486.412 297.663,483.573 C301.201,484.364 305.236,484.813 309.517,484.813 C310.481,484.813 311.431,484.79 312.367,484.746 C313.608,492.993 325.915,494.446 340.929,494.237 C350.281,497.143 360.297,497.594 370.977,495.589 C377.347,500.771 392.165,501.429 399.966,500.421 C407.068,499.503 418.697,496.7 415.765,489.917 C417.773,490.364 420.284,490.696 423.296,490.913 C424.464,495.204 433.435,497.527 440.308,498.194 C447.729,498.914 460.011,498.284 466.467,494.656 C472.514,497.152 482.157,497.833 489.425,497.137 C495.735,496.532 505.097,494.49 507.019,490.022 C511.94,493.759 520.778,495.148 527.641,495.083 C535.924,495.004 550.58,493.387 552.437,486.428 C560.588,486.363 567.027,485.423 571.02,483.233 C574.329,481.418 577.546,479.414 575.493,475 C591.043,473.191 590.589,466.211 590.02,462.937 C589.376,459.228 583.746,455.092 569.674,454.352 C571.608,449.115 562.508,439.149 556.28,434.765 C549.65,430.098 535.413,421.541 530.756,427.617 C527.501,424.484 523.725,421.553 519.257,418.889 C527.419,415.525 523.468,407.724 520.368,405.452 C514.858,401.413 501.588,399.351 486.886,402.378 C486.299,402.024 485.744,401.748 485.201,401.508 C492.261,399.632 492.2,392.389 489.53,389.318 C486.977,386.382 481.236,383.588 470.668,383.129 C480.564,367.26 486.939,350.166 490.27,333.146 C499.139,287.821 483.054,191.253 416.883,156.437 C428.044,148.506 432.355,138.906 416.964,130.141 C417.284,111.177 402.352,107.076 385.241,105.097 C389.519,94.32 396.685,85.901 406.298,79.346 C411.235,75.98 416.252,73.441 422.568,71.404 C429.928,69.031 445.391,68.526 447.768,63.522 C446.559,60.29 438.813,56.615 433.407,55.802 C428.328,55.038 422.994,57.389 419.626,55.324 C417.111,53.782 418.401,50.083 419.133,45.325 C419.513,39.411 419.848,34.866 417.908,32.15 C413.713,26.274 403.947,28.837 398.323,29.853 C390.285,31.306 382.575,32.645 368.545,44.991 C364.191,18.606 355.717,4.905 343.559,2.548 C339.317,1.725 334.627,2.283 329.506,4.165 C321.866,6.973 316.509,11.369 310.588,16.624 C308.918,18.106 307.509,19.727 307.081,21.799 C304.767,33.021 308.796,47.467 306.478,59.055 C303.121,70.942 297.48,64.404 293.786,55.062 C292.148,50.918 288.976,44.353 283.897,44.121 C277.024,43.807 275.374,50.393 272.555,54.803 C270.738,57.646 268.478,59.268 265.776,59.67 C263.781,59.966 261.753,59.012 259.277,57.979 C253.421,55.537 251.683,52.685 244.999,53.003 C224.971,53.954 249.64,67.255 258.048,76.956 C265.781,85.878 274.992,95.656 277.328,103.886 C278.861,109.287 279.771,114.79 279.722,120.457 z" fill="#000000" id="_272412760"/>
    <path d="M240.825,420.269 C244.33,420.269 247.632,420.522 250.531,420.969 C252.431,423.807 255.115,426.793 258.406,429.64 C254.703,431.334 248.212,432.459 240.825,432.459 C229.313,432.459 219.976,429.73 219.976,426.364 C219.976,422.998 229.313,420.269 240.825,420.269 z" fill="#C0A062" id="_272412688"/>
    <path d="M261.219,442.362 C261.03,442.357 260.841,442.351 260.654,442.344 C259.524,440.495 257.469,438.826 254.288,437.614 C255.584,437.256 256.797,436.85 257.914,436.401 C260.322,435.432 261.913,434.363 262.904,433.159 C265.916,435.296 268.969,437.052 271.89,438.387 C268.251,439.102 265.081,440.17 262.627,441.487 C262.104,441.768 261.637,442.06 261.219,442.362 z" fill="#C0A062" id="_272412616"/>
    <path d="M211.622,457.562 L211.803,457.562 C213.408,458.58 215.126,459.554 216.939,460.463 C222.085,463.044 227.193,464.7 231.612,465.391 C229.055,467.912 221.073,469.752 211.622,469.752 C207.301,469.752 203.288,469.367 199.958,468.708 C199.312,467.609 198.343,466.571 197.009,465.652 C197.595,465.454 198.159,465.247 198.701,465.029 C203.447,463.12 205.017,460.824 205.08,457.868 C207.138,457.669 209.336,457.562 211.622,457.562 z" fill="#C0A062" id="_272412544"/>
    <path d="M249.062,438.717 C254.534,439.816 258.124,441.658 258.124,443.745 C258.124,446.948 249.666,449.575 238.923,449.82 C235.762,446.803 231.502,443.823 226.535,441.334 C225.161,440.644 223.79,440.021 222.434,439.464 C224.254,438.925 226.413,438.485 228.813,438.173 C232.29,438.929 236.233,439.357 240.413,439.357 C243.451,439.357 246.363,439.13 249.062,438.717 z" fill="#C0A062" id="_272412472"/>
    <path d="M80.157,431.568 C85.521,421.382 92.286,414.392 95.264,415.96 C98.242,417.529 96.307,427.061 90.943,437.248 C85.578,447.434 78.813,454.424 75.835,452.855 C72.857,451.288 74.793,441.755 80.157,431.568 z" fill="#C0A062" id="_272412400"/>
    <path d="M54.021,445.798 C52.404,449.44 47.6,454.687 41.143,459.499 C35.08,464.017 29.068,467.03 25.084,467.802 C26.744,466.73 28.414,465.526 30.062,464.199 C35.347,459.943 39.441,455.202 41.838,450.92 C42.999,448.847 43.572,447.138 43.674,445.668 C45.571,445.86 47.55,445.961 49.586,445.961 C51.099,445.961 52.581,445.905 54.021,445.798 z" fill="#C0A062" id="_272412328"/>
    <path d="M18.182,449.971 C22.808,446.524 27.405,443.953 31.094,442.585 C33.261,443.558 35.856,444.361 38.751,444.939 C37.733,448.565 32.612,454.419 25.467,459.744 C16.236,466.623 7.12,470.016 5.107,467.315 C3.096,464.617 8.952,456.851 18.182,449.971 z" fill="#C0A062" id="_272412256"/>
    <path d="M70.937,421.885 C75.083,421.885 78.945,422.238 82.193,422.848 C80.616,424.995 79.104,427.401 77.724,430.01 C77.035,431.313 76.407,432.614 75.84,433.904 C75.006,433.963 74.152,434.007 73.282,434.036 C72.601,431.099 69.993,428.333 64.762,426.683 C61.497,425.653 57.624,424.946 53.411,424.678 C57.124,422.997 63.586,421.885 70.937,421.885 z" fill="#C0A062" id="_272412184"/>
    <path d="M90.774,448.995 C91.448,449.033 92.11,449.08 92.759,449.136 C93.407,450.795 94.816,452.305 97.342,453.565 C99.634,454.708 102.483,455.646 105.713,456.303 C102.172,457.018 99.085,458.069 96.684,459.358 C95.939,459.758 95.306,460.18 94.773,460.623 C92.334,460.916 89.663,461.078 86.863,461.078 C84.61,461.078 82.441,460.972 80.408,460.779 C79.028,459.572 77.116,458.52 74.598,457.725 C72.14,456.95 69.337,456.357 66.304,455.997 C66.115,455.667 66.014,455.329 66.014,454.983 C66.014,453.308 68.329,451.79 72.073,450.688 C72.363,453.814 73.8,455.541 75.779,456.587 C78.104,457.817 80.84,457.801 84.234,455.371 C86.384,453.83 88.618,451.66 90.774,448.995 z" fill="#C0A062" id="_272412112"/>
    <path d="M157.375,430.729 C157.08,431.072 156.686,431.404 156.201,431.722 C149.19,431.881 142.934,433.241 138.571,435.323 C138.102,435.332 137.63,435.338 137.153,435.338 C132.756,435.338 128.679,434.939 125.316,434.26 C127.165,432.77 127.833,431.062 127.833,429.05 C127.833,427.344 127.238,425.636 125.915,424.108 C129,423.53 132.64,423.183 136.549,423.15 C137.282,424.582 138.641,425.889 140.87,427.001 C144.941,429.032 150.775,430.415 157.375,430.729 z" fill="#C0A062" id="_272412040"/>
    <path d="M156.819,456.652 C154.336,456.309 151.684,456.125 148.93,456.125 C142.014,456.125 135.744,457.293 131.168,459.187 C125.211,458.114 121.238,456.191 121.238,453.995 C121.238,451.221 127.582,448.879 136.258,448.142 C136.817,448.553 137.462,448.946 138.205,449.316 C142.859,451.638 149.814,453.113 157.583,453.113 C157.784,453.113 157.985,453.112 158.185,453.11 C157.315,454.208 156.916,455.401 156.819,456.652 z" fill="#C0A062" id="_272411968"/>
    <path d="M201.311,455.223 L201.313,455.258 C201.313,458.624 191.976,461.353 180.464,461.353 C168.951,461.353 159.615,458.624 159.615,455.258 C159.615,454.464 160.135,453.705 161.079,453.01 C166.474,452.696 171.327,451.667 175.084,450.156 C175.816,449.861 176.472,449.558 177.059,449.244 C177.486,449.223 177.919,449.206 178.353,449.193 C179.121,450 180.155,450.751 181.514,451.428 C186.167,453.75 193.122,455.225 200.892,455.225 L201.311,455.223 z" fill="#C0A062" id="_272411896"/>
    <path d="M115.949,458.27 C116.994,458.27 118.021,458.292 119.024,458.336 C119.725,459.867 121.109,461.262 123.468,462.439 C124.088,462.748 124.749,463.041 125.447,463.319 C124.781,464.418 124.524,465.597 124.524,466.825 C124.524,467.867 124.726,468.874 125.203,469.827 C122.414,470.232 119.273,470.46 115.949,470.46 C104.437,470.46 95.1,467.731 95.1,464.365 C95.1,461 104.437,458.27 115.949,458.27 z" fill="#C0A062" id="_272411824"/>
    <path d="M116.296,438.683 C127.809,438.683 137.145,441.412 137.145,444.778 C137.145,444.889 137.134,444.998 137.114,445.108 C131.389,445.666 126.405,447.042 122.891,448.928 C121.837,449.494 121.006,450.106 120.364,450.756 C119.048,450.832 117.689,450.873 116.296,450.873 C104.784,450.873 95.447,448.144 95.447,444.778 C95.447,441.412 104.784,438.683 116.296,438.683 z" fill="#C0A062" id="_272411752"/>
    <path d="M193.238,466.706 C195.187,467.427 196.591,468.281 197.266,469.213 C196.962,469.209 196.657,469.207 196.35,469.207 C188.252,469.207 181.038,470.809 176.394,473.302 C174.644,474.241 173.515,475.307 172.832,476.462 C163.252,475.912 156.022,473.444 156.022,470.482 C156.022,468.417 159.539,466.591 164.915,465.489 C169.321,467.047 175.001,467.987 181.2,467.987 C185.557,467.987 189.655,467.523 193.238,466.706 z" fill="#C0A062" id="_272411680"/>
    <path d="M147.676,459.271 C151.157,459.271 154.438,459.52 157.323,459.961 C157.922,461.349 159.071,462.628 160.985,463.738 C159.566,464.231 158.276,464.788 157.14,465.398 C154.081,467.04 152.918,469.068 152.72,471.28 C151.105,471.397 149.416,471.461 147.676,471.461 C136.163,471.461 126.827,468.732 126.827,465.366 C126.827,462 136.163,459.271 147.676,459.271 z" fill="#C0A062" id="_272411608"/>
    <path d="M225.08,443.561 C235.396,448.674 242.549,455.265 241.054,458.281 C239.56,461.296 229.982,459.596 219.667,454.483 C218.631,453.97 217.629,453.441 216.663,452.903 C217.262,452.702 217.839,452.491 218.393,452.268 C223.239,450.319 224.773,447.967 224.773,444.919 C224.773,444.386 224.715,443.852 224.594,443.323 C224.756,443.402 224.918,443.481 225.08,443.561 z" fill="#C0A062" id="_272411536"/>
    <path d="M205.294,427.795 C205.821,428.331 206.105,428.897 206.105,429.482 C206.105,431.185 203.714,432.725 199.862,433.83 C195.147,433.91 190.763,434.533 187.051,435.554 C186.46,435.569 185.861,435.577 185.255,435.577 C173.743,435.577 164.407,432.848 164.407,429.482 C164.407,427.851 166.601,426.369 170.173,425.275 C170.538,425.502 170.933,425.723 171.36,425.936 C176.014,428.258 182.969,429.733 190.738,429.733 C196.154,429.733 201.173,429.016 205.294,427.795 z" fill="#C0A062" id="_272411464"/>
    <path d="M157.638,433.932 C158.936,433.932 160.206,433.967 161.439,434.033 C162.124,435.605 163.517,437.037 165.93,438.241 C169.022,439.783 173.13,440.951 177.818,441.562 C175.488,444.184 167.336,446.122 157.638,446.122 C146.125,446.122 136.789,443.393 136.789,440.027 C136.789,436.661 146.125,433.932 157.638,433.932 z" fill="#C0A062" id="_272411392"/>
    <path d="M160.086,412.08 C163.536,412.08 166.79,412.325 169.656,412.759 C166.825,414.507 165.914,416.648 165.914,418.958 C165.914,420.625 166.431,422.201 167.761,423.608 C167.506,423.711 167.256,423.816 167.012,423.924 C164.845,424.147 162.515,424.27 160.086,424.27 C148.574,424.27 139.237,421.541 139.237,418.175 C139.237,414.809 148.574,412.08 160.086,412.08 z" fill="#C0A062" id="_272411320"/>
    <path d="M64.786,451.79 C63.565,452.85 62.888,454.016 62.888,455.241 C62.888,455.396 62.897,455.549 62.916,455.702 C61.547,455.616 60.136,455.571 58.696,455.571 C56.209,455.571 53.812,455.705 51.564,455.954 C53.174,454.217 54.533,452.512 55.594,450.913 C56.611,449.379 57.362,447.912 57.811,446.568 C58.514,448.686 61.044,450.498 64.786,451.79 z" fill="#C0A062" id="_272411248"/>
    <path d="M103.297,420.621 C114.81,420.621 124.146,423.35 124.146,426.715 C124.146,430.081 114.81,432.81 103.297,432.81 C102.137,432.81 100.999,432.782 99.89,432.728 C101.133,429.304 101.912,426.041 102.213,423.159 C102.31,422.231 102.346,421.39 102.325,420.627 C102.647,420.623 102.971,420.621 103.297,420.621 z" fill="#C0A062" id="_272411176"/>
    <path d="M49.416,427.43 C60.898,428.261 70.013,431.658 69.77,435.015 C69.527,438.372 60.017,440.419 48.535,439.588 C37.053,438.756 27.938,435.359 28.181,432.002 C28.424,428.645 37.934,426.598 49.416,427.43 z" fill="#C0A062" id="_272411104"/>
    <path d="M59.809,458.426 C71.321,458.426 80.658,461.156 80.658,464.521 C80.658,464.847 80.568,465.168 80.399,465.48 C74.896,466.07 70.111,467.419 66.707,469.246 C66.006,469.623 65.404,470.018 64.891,470.433 C63.264,470.552 61.562,470.616 59.809,470.616 C50.153,470.616 42.03,468.696 39.66,466.09 C41.34,465.009 43.029,463.792 44.697,462.449 C45.902,461.479 47.045,460.483 48.12,459.474 C51.454,458.812 55.477,458.426 59.809,458.426 z" fill="#C0A062" id="_272411032"/>
    <path d="M86.033,467.86 C88.321,467.86 90.52,467.967 92.58,468.166 C92.773,468.739 93.052,469.293 93.433,469.828 C91.695,470.384 90.134,471.033 88.787,471.755 C85.398,473.574 84.337,475.869 84.337,478.362 C84.337,478.931 84.398,479.489 84.53,480.034 C73.72,479.808 65.184,477.173 65.184,473.955 C65.184,470.589 74.521,467.86 86.033,467.86 z" fill="#C0A062" id="_272410960"/>
    <path d="M121.218,476.492 C118.935,478.148 118.177,480.115 118.177,482.222 C118.177,482.413 118.183,482.602 118.197,482.791 C115.209,483.274 111.772,483.551 108.115,483.551 C96.602,483.551 87.266,480.822 87.266,477.456 C87.266,475.358 90.893,473.508 96.413,472.411 C96.681,472.567 96.963,472.72 97.262,472.869 C101.915,475.191 108.87,476.666 116.64,476.666 C118.203,476.666 119.733,476.606 121.218,476.492 z" fill="#C0A062" id="_272410888"/>
    <path d="M155.11,477.209 C155.801,477.815 156.662,478.386 157.717,478.913 C159.264,479.684 161.064,480.361 163.064,480.922 C161.952,483.982 153.094,486.366 142.334,486.366 C130.822,486.366 121.486,483.637 121.486,480.271 C121.486,477.964 125.872,475.956 132.339,474.921 C136.787,476.545 142.587,477.529 148.93,477.529 C151.061,477.529 153.132,477.418 155.11,477.209 z" fill="#C0A062" id="_272410816"/>
    <path d="M196.422,471.894 C207.935,471.894 217.271,474.623 217.271,477.988 C217.271,481.354 207.935,484.084 196.422,484.084 C184.91,484.084 175.573,481.354 175.573,477.988 C175.573,474.623 184.91,471.894 196.422,471.894 z" fill="#C0A062" id="_272410744"/>
    <path d="M248.023,414.433 C245.059,416.743 237.434,418.389 228.497,418.389 C222.904,418.389 217.825,417.743 214.08,416.695 C213.88,416.209 213.623,415.73 213.305,415.265 C215.486,414.35 216.961,413.345 217.907,412.223 C222.558,412.156 226.891,411.56 230.581,410.575 L230.774,410.674 C234.998,412.781 241.118,414.19 248.023,414.433 z" fill="#C0A062" id="_272410672"/>
    <path d="M214.557,420.436 C217.468,420.456 220.23,420.649 222.729,420.983 C221.917,421.316 221.159,421.672 220.458,422.048 C217.069,423.867 216.007,426.162 216.007,428.655 C216.007,430.031 216.36,431.346 217.232,432.555 C216.203,432.6 215.15,432.625 214.077,432.625 C212.3,432.625 210.576,432.559 208.929,432.437 C208.941,432.251 208.947,432.064 208.947,431.873 C208.947,430.253 208.41,428.631 207.223,427.164 C207.57,427.038 207.909,426.91 208.239,426.777 C212.537,425.048 214.229,423.003 214.557,420.436 z" fill="#C0A062" id="_272410000"/>
    <path d="M200.957,436.387 C212.469,436.387 221.806,439.116 221.806,442.482 C221.806,445.848 212.469,448.577 200.957,448.577 C189.444,448.577 180.108,445.848 180.108,442.482 C180.108,439.116 189.444,436.387 200.957,436.387 z" fill="#C0A062" id="_272410024"/>
    <path d="M195.776,399.531 C207.289,399.531 216.625,402.26 216.625,405.626 C216.625,407.798 212.735,409.704 206.882,410.784 C206.569,410.67 206.248,410.56 205.915,410.455 C201.683,409.12 196.429,408.329 190.738,408.329 C189.964,408.329 189.198,408.343 188.441,408.371 C188.45,408.218 188.453,408.063 188.453,407.905 C188.453,405.27 187.033,402.632 183.705,400.655 C187.112,399.947 191.277,399.531 195.776,399.531 z" fill="#C0A062" id="_272410096"/>
    <path d="M249.671,395.781 C261.183,395.781 270.52,398.51 270.52,401.875 C270.52,405.241 261.183,407.97 249.671,407.97 C238.158,407.97 228.822,405.241 228.822,401.875 C228.822,398.51 238.158,395.781 249.671,395.781 z" fill="#C0A062" id="_272410192"/>
    <path d="M230.386,395.183 C231.305,395.404 232.157,395.648 232.934,395.912 C231.945,396.297 231.03,396.716 230.197,397.163 C226.808,398.982 225.746,401.277 225.746,403.77 C225.746,404.329 225.806,404.876 225.933,405.412 C223.936,405.684 221.768,405.867 219.488,405.942 C218.625,403.209 216.024,400.677 211.115,399.128 C207.907,398.116 204.111,397.417 199.984,397.137 C201.348,396.57 202.44,395.969 203.3,395.326 C203.521,395.268 203.748,395.212 203.977,395.157 C207.835,396.157 212.374,396.734 217.231,396.734 C222.048,396.734 226.55,396.166 230.386,395.183 z" fill="#C0A062" id="_272410480"/>
    <path d="M155.832,375.224 C164.785,375.224 172.42,376.874 175.373,379.19 C170.115,379.81 165.546,381.128 162.262,382.891 C159.86,384.181 158.626,385.708 158.112,387.377 C157.363,387.401 156.603,387.414 155.832,387.414 C151.193,387.414 146.909,386.97 143.445,386.22 C143.808,385.386 143.961,384.492 143.961,383.529 C143.961,381.275 142.923,379.019 140.54,377.177 C144.348,375.975 149.79,375.224 155.832,375.224 z" fill="#C0A062" id="_272410432"/>
    <path d="M181.91,382.041 C193.423,382.041 202.759,384.77 202.759,388.136 C202.759,391.502 193.423,394.231 181.91,394.231 C170.398,394.231 161.061,391.502 161.061,388.136 C161.061,384.77 170.398,382.041 181.91,382.041 z" fill="#C0A062" id="_272409520"/>
    <path d="M216.463,377.871 C227.975,377.871 237.312,380.601 237.312,383.966 C237.312,387.332 227.975,390.061 216.463,390.061 C212.678,390.061 209.13,389.766 206.07,389.25 C205.787,386.081 203.384,382.987 198.012,381.126 C201.506,379.191 208.457,377.871 216.463,377.871 z" fill="#C0A062" id="_272409064"/>
    <path d="M195.078,365.966 C206.591,365.966 215.927,368.695 215.927,372.061 C215.927,373.354 214.548,374.552 212.199,375.538 C207.835,375.908 203.877,376.752 200.636,377.935 C198.866,378.078 197.003,378.156 195.078,378.156 C183.566,378.156 174.229,375.427 174.229,372.061 C174.229,368.695 183.566,365.966 195.078,365.966 z" fill="#C0A062" id="_272409136"/>
    <path d="M166.802,360.835 C174.733,360.835 181.63,362.13 185.155,364.036 C181.335,364.75 178.011,365.85 175.462,367.219 C172.498,368.81 171.314,370.764 171.063,372.897 C169.687,372.98 168.263,373.025 166.802,373.025 C155.29,373.025 145.953,370.296 145.953,366.93 C145.953,363.564 155.29,360.835 166.802,360.835 z" fill="#C0A062" id="_272406808"/>
    <path d="M80.53,408.08 C88.757,408.08 95.87,409.473 99.262,411.496 C98.909,412.126 98.685,412.781 98.563,413.455 C95.618,412.329 91.735,413.09 87.469,416.997 C86.437,417.943 85.401,419.002 84.377,420.165 C83.13,420.233 81.845,420.27 80.53,420.27 C69.018,420.27 59.682,417.541 59.682,414.175 C59.682,410.809 69.018,408.08 80.53,408.08 z" fill="#C0A062" id="_272406736"/>
    <path d="M140.079,391.376 C151.072,391.376 160.08,393.864 160.87,397.019 C155.974,397.274 151.573,398.055 148.195,399.182 L148.196,399.184 C144.88,400.29 142.474,401.792 141.388,403.553 C140.955,403.561 140.519,403.565 140.079,403.565 C132.639,403.565 126.11,402.425 122.42,400.71 C122.579,400.278 122.66,399.833 122.66,399.376 C122.66,397.938 121.852,396.612 120.398,395.455 C123.245,393.079 130.981,391.376 140.079,391.376 z" fill="#C0A062" id="_272406664"/>
    <path d="M119.358,375.524 C130.87,375.524 140.207,378.253 140.207,381.619 C140.207,384.985 130.87,387.714 119.358,387.714 C107.845,387.714 98.509,384.985 98.509,381.619 C98.509,378.253 107.845,375.524 119.358,375.524 z" fill="#C0A062" id="_272406616"/>
    <path d="M98.926,393.286 C110.439,393.286 119.775,396.015 119.775,399.381 C119.775,402.747 110.439,405.476 98.926,405.476 C87.414,405.476 78.078,402.747 78.078,399.381 C78.078,396.015 87.414,393.286 98.926,393.286 z" fill="#C0A062" id="_272407192"/>
    <path d="M122.928,406.873 C133.449,406.873 142.152,409.152 143.572,412.113 C142.305,412.571 141.146,413.082 140.114,413.636 C137.922,414.812 136.703,416.187 136.116,417.687 C132.523,418.546 127.931,419.062 122.928,419.062 C111.415,419.062 102.079,416.333 102.079,412.967 C102.079,409.602 111.415,406.873 122.928,406.873 z" fill="#C0A062" id="_272406976"/>
    <path d="M164.12,399.67 C175.632,399.67 184.969,402.399 184.969,405.765 C184.969,406.825 184.041,407.82 182.412,408.688 C179.153,409.075 176.224,409.703 173.814,410.507 C173.534,410.6 173.26,410.696 172.993,410.795 C169.26,409.919 164.733,409.405 159.869,409.405 C156.261,409.405 152.84,409.688 149.791,410.191 C145.777,409.08 143.271,407.508 143.271,405.765 C143.271,402.399 152.607,399.67 164.12,399.67 z" fill="#C0A062" id="_272407048"/>
    <path d="M190.055,410.932 C201.567,410.932 210.904,413.661 210.904,417.027 C210.904,420.392 201.567,423.122 190.055,423.122 C178.542,423.122 169.206,420.392 169.206,417.027 C169.206,413.661 178.542,410.932 190.055,410.932 z" fill="#C0A062" id="_272407120"/>
    <path d="M218.224,369.957 C219.529,369.182 220.653,368.953 221.483,369.39 C222.791,370.079 223.15,372.305 222.688,375.448 C221.549,375.359 220.348,375.299 219.082,375.272 C219.371,373.067 219.059,371.347 218.224,369.957 z" fill="#C0A062" id="_272406592"/>
    <path d="M283.594,384.159 C283.299,384.502 282.905,384.834 282.421,385.152 C275.409,385.31 269.153,386.671 264.79,388.753 C264.321,388.762 263.849,388.768 263.372,388.768 C258.975,388.768 254.898,388.369 251.535,387.689 C253.384,386.199 254.053,384.491 254.053,382.48 C254.053,380.773 253.458,379.066 252.134,377.538 C255.219,376.959 258.859,376.612 262.768,376.58 C263.502,378.012 264.86,379.318 267.089,380.431 C271.161,382.462 276.994,383.845 283.594,384.159 z" fill="#C0A062" id="_272406520"/>
    <path d="M283.038,410.079 C280.555,409.736 277.903,409.552 275.149,409.552 C273.96,409.552 272.792,409.588 271.646,409.654 C273.086,408.503 273.773,407.123 273.955,405.703 C276.983,406.242 280.31,406.54 283.802,406.54 C284.003,406.54 284.204,406.538 284.404,406.536 C283.535,407.635 283.135,408.828 283.038,410.079 z" fill="#C0A062" id="_272406448"/>
    <path d="M242.514,392.11 C247.046,392.11 251.239,392.532 254.659,393.25 C249.323,392.895 243.193,393.248 236.79,394.567 C236.204,394.213 235.648,393.936 235.105,393.696 C236.36,393.363 237.39,392.859 238.221,392.239 C239.607,392.154 241.042,392.11 242.514,392.11 z" fill="#C0A062" id="_272406016"/>
    <path d="M331.514,381.225 C332.04,381.76 332.324,382.327 332.324,382.912 C332.324,384.615 329.934,386.154 326.081,387.26 C321.367,387.339 316.982,387.962 313.271,388.984 C312.679,388.998 312.08,389.007 311.475,389.007 C299.963,389.007 290.626,386.277 290.626,382.912 C290.626,381.28 292.82,379.798 296.392,378.704 C296.757,378.931 297.152,379.153 297.58,379.366 C302.233,381.687 309.188,383.162 316.958,383.162 C322.374,383.162 327.393,382.445 331.514,381.225 z" fill="#C0A062" id="_272406160"/>
    <path d="M283.857,387.362 C285.156,387.362 286.426,387.396 287.659,387.463 C288.344,389.035 289.737,390.467 292.15,391.671 C295.242,393.213 299.35,394.381 304.038,394.991 C301.708,397.614 293.556,399.552 283.857,399.552 C279.001,399.552 274.533,399.066 270.99,398.251 C270.75,398.019 270.509,397.815 270.273,397.642 C268.621,396.431 266.271,395.397 263.394,394.626 C263.142,394.247 263.009,393.856 263.009,393.457 C263.009,390.091 272.345,387.362 283.857,387.362 z" fill="#C0A062" id="_272406208"/>
    <path d="M286.304,365.507 C289.754,365.507 293.007,365.751 295.874,366.185 C293.043,367.934 292.132,370.074 292.132,372.385 C292.132,374.051 292.649,375.628 293.979,377.035 C293.724,377.138 293.474,377.243 293.23,377.35 C291.062,377.574 288.732,377.696 286.304,377.696 C274.791,377.696 265.455,374.967 265.455,371.601 C265.455,368.236 274.791,365.507 286.304,365.507 z" fill="#C0A062" id="_272406184"/>
    <path d="M229.516,374.05 C241.028,374.05 250.365,376.779 250.365,380.145 C250.365,382.267 246.651,384.136 241.022,385.227 C240.824,383.778 240.252,382.447 239.434,381.507 C237.609,379.407 234.153,377.38 228.467,376.228 C228.538,375.441 228.562,374.72 228.543,374.057 C228.866,374.052 229.189,374.05 229.516,374.05 z" fill="#C0A062" id="_272408536"/>
    <path d="M374.243,367.862 C371.279,370.173 363.654,371.818 354.717,371.818 C349.124,371.818 344.045,371.173 340.3,370.125 C340.1,369.638 339.843,369.16 339.525,368.694 C341.706,367.779 343.181,366.775 344.127,365.653 C348.778,365.586 353.111,364.99 356.801,364.004 L356.994,364.103 C361.218,366.21 367.338,367.62 374.243,367.862 z" fill="#C0A062" id="_272408608"/>
    <path d="M340.777,373.866 C343.688,373.885 346.45,374.079 348.949,374.413 C348.137,374.746 347.378,375.102 346.678,375.478 C343.289,377.297 342.227,379.592 342.227,382.084 C342.227,383.461 342.58,384.776 343.452,385.984 C342.423,386.03 341.37,386.054 340.297,386.054 C338.52,386.054 336.796,385.989 335.149,385.866 C335.161,385.681 335.167,385.493 335.167,385.302 C335.167,383.682 334.63,382.061 333.443,380.593 C333.79,380.468 334.129,380.339 334.459,380.207 C338.757,378.478 340.449,376.432 340.777,373.866 z" fill="#C0A062" id="_272408776"/>
    <path d="M321.995,352.96 C333.507,352.96 342.844,355.69 342.844,359.055 C342.844,361.227 338.953,363.134 333.1,364.213 C332.788,364.099 332.467,363.99 332.133,363.884 C327.901,362.549 322.648,361.758 316.957,361.758 C316.183,361.758 315.417,361.772 314.66,361.801 C314.668,361.647 314.672,361.492 314.672,361.335 C314.672,358.7 313.252,356.062 309.923,354.085 C313.33,353.376 317.496,352.96 321.995,352.96 z" fill="#C0A062" id="_272408896"/>
    <path d="M375.89,349.21 C387.403,349.21 396.739,351.939 396.739,355.305 C396.739,358.671 387.403,361.4 375.89,361.4 C364.378,361.4 355.041,358.671 355.041,355.305 C355.041,351.939 364.378,349.21 375.89,349.21 z" fill="#C0A062" id="_272408968"/>
    <path d="M356.606,348.609 C357.525,348.831 358.376,349.074 359.153,349.338 C358.165,349.724 357.25,350.143 356.417,350.59 C353.028,352.409 351.966,354.704 351.966,357.197 C351.966,357.755 352.025,358.303 352.153,358.839 C350.156,359.111 347.988,359.294 345.708,359.369 C344.844,356.636 342.244,354.104 337.334,352.555 C334.126,351.543 330.331,350.843 326.203,350.564 C327.568,349.997 328.659,349.395 329.52,348.753 C329.741,348.695 329.968,348.639 330.197,348.584 C334.055,349.584 338.593,350.161 343.451,350.161 C348.267,350.161 352.77,349.593 356.606,348.609 z" fill="#C0A062" id="_272406280"/>
    <path d="M282.051,328.653 C291.003,328.653 298.638,330.303 301.592,332.62 C296.334,333.24 291.765,334.558 288.48,336.321 C286.078,337.61 284.845,339.138 284.331,340.806 C283.582,340.83 282.821,340.843 282.051,340.843 C277.411,340.843 273.127,340.399 269.663,339.65 C270.026,338.816 270.18,337.922 270.18,336.958 C270.18,334.705 269.141,332.448 266.759,330.606 C270.567,329.405 276.008,328.653 282.051,328.653 z" fill="#C0A062" id="_272406112"/>
    <path d="M308.128,335.471 C319.64,335.471 328.977,338.2 328.977,341.565 C328.977,344.931 319.64,347.661 308.128,347.661 C296.615,347.661 287.279,344.931 287.279,341.565 C287.279,338.2 296.615,335.471 308.128,335.471 z" fill="#C0A062" id="_272406328"/>
    <path d="M342.682,331.301 C354.195,331.301 363.531,334.03 363.531,337.396 C363.531,340.762 354.195,343.491 342.682,343.491 C338.897,343.491 335.349,343.195 332.289,342.68 C332.006,339.511 329.604,336.416 324.232,334.556 C327.725,332.62 334.676,331.301 342.682,331.301 z" fill="#C0A062" id="_272409640"/>
    <path d="M321.297,319.395 C332.81,319.395 342.147,322.125 342.147,325.49 C342.147,326.783 340.768,327.982 338.418,328.967 C334.055,329.338 330.096,330.181 326.855,331.365 C325.086,331.508 323.222,331.585 321.297,331.585 C309.785,331.585 300.449,328.856 300.449,325.49 C300.449,322.125 309.785,319.395 321.297,319.395 z" fill="#C0A062" id="_272408296"/>
    <path d="M293.019,314.265 C300.95,314.265 307.847,315.559 311.372,317.466 C307.552,318.18 304.228,319.28 301.679,320.648 C298.715,322.239 297.531,324.194 297.28,326.326 C295.904,326.41 294.48,326.455 293.019,326.455 C281.507,326.455 272.17,323.725 272.17,320.359 C272.17,316.994 281.507,314.265 293.019,314.265 z" fill="#C0A062" id="_272409616"/>
    <path d="M206.749,361.51 C214.975,361.51 222.088,362.903 225.48,364.926 C225.128,365.555 224.904,366.21 224.782,366.885 C222.537,366.026 219.746,366.264 216.656,368.157 C215.156,366.906 213.027,365.987 210.372,365.178 C205.88,363.811 199.682,363.006 191.841,363.345 C195.627,362.213 200.907,361.51 206.749,361.51 z" fill="#C0A062" id="_272409808"/>
    <path d="M266.297,344.805 C277.291,344.805 286.299,347.293 287.089,350.448 C282.193,350.704 277.791,351.484 274.414,352.612 L274.415,352.613 C271.098,353.72 268.692,355.221 267.607,356.982 C267.174,356.99 266.737,356.995 266.297,356.995 C258.858,356.995 252.328,355.855 248.639,354.14 C248.797,353.707 248.879,353.263 248.879,352.806 C248.879,351.368 248.07,350.041 246.617,348.885 C249.464,346.509 257.2,344.805 266.297,344.805 z" fill="#C0A062" id="_272409880"/>
    <path d="M245.576,328.954 C257.089,328.954 266.425,331.683 266.425,335.049 C266.425,338.414 257.089,341.144 245.576,341.144 C234.064,341.144 224.727,338.414 224.727,335.049 C224.727,331.683 234.064,328.954 245.576,328.954 z" fill="#C0A062" id="_272409184"/>
    <path d="M225.145,346.716 C236.658,346.716 245.994,349.445 245.994,352.811 C245.994,356.176 236.658,358.906 225.145,358.906 C213.633,358.906 204.296,356.176 204.296,352.811 C204.296,349.445 213.633,346.716 225.145,346.716 z" fill="#C0A062" id="_272409592"/>
    <path d="M249.146,360.299 C259.668,360.299 268.37,362.578 269.79,365.54 C268.523,365.998 267.365,366.509 266.333,367.063 C264.141,368.239 262.922,369.614 262.335,371.114 C258.741,371.973 254.15,372.489 249.146,372.489 C237.634,372.489 228.297,369.76 228.297,366.394 C228.297,363.029 237.634,360.299 249.146,360.299 z" fill="#C0A062" id="_272409448"/>
    <path d="M290.337,353.099 C301.85,353.099 311.187,355.829 311.187,359.194 C311.187,360.254 310.259,361.25 308.63,362.118 C305.371,362.504 302.441,363.133 300.032,363.937 C299.751,364.03 299.477,364.126 299.21,364.225 C295.478,363.349 290.951,362.835 286.087,362.835 C282.479,362.835 279.058,363.117 276.009,363.62 C271.994,362.51 269.489,360.938 269.489,359.194 C269.489,355.829 278.825,353.099 290.337,353.099 z" fill="#C0A062" id="_272409352"/>
    <path d="M316.274,364.361 C327.787,364.361 337.124,367.091 337.124,370.456 C337.124,373.822 327.787,376.551 316.274,376.551 C304.762,376.551 295.426,373.822 295.426,370.456 C295.426,367.091 304.762,364.361 316.274,364.361 z" fill="#C0A062" id="_272407672"/>
    <path d="M568.49,456.864 C579.099,457.149 587.413,459.758 587.413,462.933 C587.413,466.299 578.076,469.028 566.564,469.028 C558.08,469.028 550.78,467.545 547.525,465.419 C548.575,465.108 549.565,464.766 550.49,464.394 C554.216,462.896 555.985,461.158 556.603,459.051 C557.313,459.276 558.007,459.473 558.684,459.639 C563.755,460.878 566.374,459.861 568.15,457.385 C568.271,457.216 568.384,457.043 568.49,456.864 z" fill="#C0A062" id="_272407720"/>
    <path d="M523.413,424.822 C525.411,426.288 527.251,427.795 528.891,429.287 C527.572,431.368 527.362,433.979 529.201,437.464 C530.128,439.219 531.399,441.069 532.968,442.937 C529.004,442.418 522.636,439.373 516.2,434.648 C510.357,430.359 505.852,425.71 503.811,422.176 C508.319,421.908 512.446,421.141 515.869,420.011 C518.273,421.309 520.838,422.931 523.413,424.822 z" fill="#C0A062" id="_272407744"/>
    <path d="M531.724,448.105 C534.061,448.105 536.306,448.217 538.403,448.424 C539.749,449.594 541.198,450.741 542.737,451.844 C545.42,453.768 548.138,455.388 550.771,456.681 C547.519,458.81 540.215,460.295 531.724,460.295 C520.212,460.295 510.876,457.566 510.876,454.2 C510.876,450.835 520.212,448.105 531.724,448.105 z" fill="#C0A062" id="_272407768"/>
    <path d="M490.92,428.079 C494.425,428.079 497.726,428.331 500.626,428.778 C502.526,431.616 505.21,434.603 508.501,437.449 C504.797,439.144 498.307,440.268 490.92,440.268 C479.407,440.268 470.071,437.539 470.071,434.173 C470.071,430.808 479.407,428.079 490.92,428.079 z" fill="#C0A062" id="_272407552"/>
    <path d="M511.315,450.175 C511.126,450.169 510.937,450.163 510.749,450.156 C509.619,448.307 507.565,446.639 504.384,445.426 C505.68,445.068 506.893,444.662 508.01,444.213 C510.418,443.245 512.008,442.175 512.999,440.972 C516.012,443.108 519.064,444.864 521.986,446.199 C518.347,446.914 515.176,447.982 512.723,449.299 C512.2,449.58 511.732,449.872 511.315,450.175 z" fill="#C0A062" id="_272407312"/>
    <path d="M461.717,465.374 L461.898,465.375 C463.503,466.392 465.221,467.366 467.034,468.275 C472.18,470.857 477.288,472.513 481.707,473.203 C479.15,475.724 471.168,477.564 461.717,477.564 C457.396,477.564 453.383,477.179 450.054,476.521 C449.407,475.422 448.438,474.383 447.104,473.464 C447.69,473.267 448.254,473.06 448.796,472.842 C453.542,470.933 455.112,468.637 455.175,465.68 C457.233,465.481 459.431,465.374 461.717,465.374 z" fill="#C0A062" id="_272407840"/>
    <path d="M505.561,462.48 C507.988,462.48 510.317,462.601 512.483,462.824 C512.945,463.134 513.461,463.433 514.033,463.718 C517.08,465.238 521.114,466.395 525.717,467.012 C526.167,467.511 526.41,468.035 526.41,468.575 C526.41,471.94 517.073,474.67 505.561,474.67 C499.476,474.67 494.001,473.907 490.19,472.691 C491.481,472.045 492.359,471.054 493.002,469.772 C493.828,468.125 494.034,466.165 493.37,464.021 C496.337,463.749 499.109,463.258 501.589,462.59 C502.875,462.518 504.202,462.48 505.561,462.48 z" fill="#C0A062" id="_272407528"/>
    <path d="M499.157,446.529 C504.628,447.628 508.219,449.47 508.219,451.557 C508.219,454.761 499.761,457.387 489.018,457.633 C485.857,454.616 481.597,451.635 476.63,449.146 C475.256,448.457 473.885,447.833 472.529,447.276 C474.348,446.737 476.508,446.297 478.908,445.985 C482.385,446.741 486.328,447.169 490.508,447.169 C493.546,447.169 496.458,446.943 499.157,446.529 z" fill="#C0A062" id="_272406064"/>
    <path d="M330.252,439.377 C335.616,429.191 342.382,422.202 345.359,423.77 C348.337,425.338 346.402,434.871 341.038,445.058 C335.674,455.244 328.909,462.233 325.931,460.665 C322.953,459.097 324.888,449.564 330.252,439.377 z" fill="#C0A062" id="_272405896"/>
    <path d="M304.117,453.607 C302.5,457.249 297.696,462.496 291.238,467.309 C285.176,471.826 279.164,474.839 275.18,475.611 C276.84,474.539 278.509,473.336 280.157,472.008 C285.442,467.753 289.536,463.011 291.934,458.729 C293.094,456.656 293.668,454.948 293.769,453.478 C295.666,453.669 297.646,453.771 299.681,453.771 C301.194,453.771 302.676,453.715 304.117,453.607 z" fill="#C0A062" id="_272407936"/>
    <path d="M268.278,457.78 C272.904,454.333 277.5,451.762 281.19,450.394 C283.357,451.368 285.952,452.17 288.847,452.748 C287.829,456.375 282.708,462.229 275.563,467.554 C266.332,474.433 257.215,477.825 255.202,475.125 C253.192,472.427 259.047,464.66 268.278,457.78 z" fill="#C0A062" id="_272408488"/>
    <path d="M321.034,429.694 C325.18,429.694 329.043,430.047 332.29,430.658 C330.713,432.804 329.201,435.21 327.821,437.819 C327.133,439.122 326.504,440.424 325.938,441.714 C325.103,441.772 324.249,441.816 323.379,441.845 C322.698,438.909 320.09,436.143 314.859,434.493 C311.594,433.463 307.721,432.756 303.508,432.487 C307.221,430.806 313.683,429.694 321.034,429.694 z" fill="#C0A062" id="_272408872"/>
    <path d="M340.871,456.808 C341.545,456.845 342.207,456.892 342.856,456.948 C343.504,458.607 344.913,460.118 347.439,461.378 C349.731,462.521 352.58,463.458 355.81,464.116 C352.269,464.83 349.182,465.882 346.781,467.17 C346.037,467.57 345.404,467.993 344.87,468.435 C342.431,468.728 339.76,468.89 336.96,468.89 C334.707,468.89 332.538,468.785 330.505,468.591 C329.125,467.385 327.213,466.332 324.695,465.538 C322.237,464.762 319.434,464.169 316.401,463.809 C316.212,463.479 316.111,463.141 316.111,462.795 C316.111,461.12 318.426,459.602 322.17,458.501 C322.461,461.626 323.897,463.354 325.876,464.4 C328.202,465.629 330.938,465.614 334.331,463.183 C336.481,461.642 338.716,459.472 340.871,456.808 z" fill="#C0A062" id="_272408584"/>
    <path d="M407.471,438.541 C407.176,438.885 406.782,439.217 406.297,439.534 C399.286,439.693 393.03,441.053 388.667,443.136 C388.198,443.145 387.726,443.15 387.249,443.15 C382.852,443.15 378.775,442.752 375.412,442.072 C377.261,440.582 377.929,438.874 377.929,436.862 C377.929,435.156 377.334,433.449 376.011,431.92 C379.096,431.342 382.736,430.995 386.645,430.963 C387.378,432.395 388.737,433.701 390.966,434.813 C395.037,436.844 400.871,438.227 407.471,438.541 z" fill="#C0A062" id="_272408056"/>
    <path d="M406.915,464.461 C404.432,464.119 401.78,463.935 399.026,463.935 C392.111,463.935 385.841,465.103 381.265,466.997 C375.307,465.923 371.334,464 371.334,461.805 C371.334,459.031 377.678,456.689 386.354,455.951 C386.913,456.362 387.558,456.755 388.301,457.126 C392.955,459.447 399.91,460.922 407.679,460.922 C407.88,460.922 408.081,460.921 408.281,460.919 C407.411,462.018 407.012,463.211 406.915,464.461 z" fill="#C0A062" id="_272407888"/>
    <path d="M451.408,463.035 L451.409,463.07 C451.409,466.436 442.073,469.165 430.56,469.165 C419.048,469.165 409.711,466.436 409.711,463.07 C409.711,462.277 410.231,461.517 411.175,460.822 C416.57,460.508 421.424,459.479 425.18,457.968 C425.913,457.674 426.569,457.37 427.156,457.056 C427.583,457.036 428.015,457.018 428.45,457.006 C429.218,457.812 430.252,458.563 431.611,459.241 C436.264,461.562 443.219,463.037 450.988,463.037 L451.408,463.035 z" fill="#C0A062" id="_272409040"/>
    <path d="M366.045,466.083 C367.09,466.083 368.116,466.105 369.12,466.148 C369.821,467.679 371.205,469.074 373.564,470.251 C374.184,470.56 374.845,470.854 375.543,471.131 C374.877,472.23 374.62,473.41 374.62,474.637 C374.62,475.68 374.822,476.687 375.299,477.639 C372.51,478.044 369.369,478.273 366.045,478.273 C354.533,478.273 345.196,475.543 345.196,472.177 C345.196,468.812 354.533,466.083 366.045,466.083 z" fill="#C0A062" id="_272407960"/>
    <path d="M366.391,446.492 C377.904,446.492 387.24,449.222 387.24,452.587 C387.24,452.698 387.229,452.808 387.209,452.917 C381.484,453.475 376.5,454.852 372.986,456.738 C371.932,457.304 371.101,457.916 370.46,458.566 C369.143,458.642 367.784,458.682 366.391,458.682 C354.879,458.682 345.542,455.953 345.542,452.587 C345.542,449.222 354.879,446.492 366.391,446.492 z" fill="#C0A062" id="_272405728"/>
    <path d="M443.332,474.516 C445.281,475.237 446.685,476.091 447.36,477.023 C447.056,477.018 446.751,477.016 446.444,477.016 C438.346,477.016 431.133,478.618 426.489,481.111 C424.738,482.051 423.609,483.116 422.927,484.271 C413.347,483.721 406.117,481.253 406.117,478.291 C406.117,476.226 409.633,474.4 415.009,473.298 C419.416,474.856 425.095,475.797 431.294,475.797 C435.651,475.797 439.75,475.332 443.332,474.516 z" fill="#C0A062" id="_272405824"/>
    <path d="M397.771,467.083 C401.252,467.083 404.533,467.332 407.418,467.773 C408.016,469.161 409.166,470.44 411.079,471.55 C409.66,472.043 408.371,472.6 407.235,473.21 C404.176,474.852 403.013,476.88 402.815,479.092 C401.199,479.21 399.51,479.273 397.771,479.273 C386.258,479.273 376.922,476.544 376.922,473.178 C376.922,469.813 386.258,467.083 397.771,467.083 z" fill="#C0A062" id="_272381920"/>
    <path d="M475.176,451.374 C485.491,456.486 492.645,463.077 491.15,466.093 C489.656,469.109 480.078,467.408 469.763,462.296 C468.727,461.783 467.725,461.253 466.759,460.716 C467.358,460.515 467.935,460.303 468.489,460.08 C473.335,458.131 474.869,455.779 474.869,452.732 C474.869,452.198 474.811,451.664 474.69,451.136 C474.852,451.214 475.014,451.293 475.176,451.374 z" fill="#C0A062" id="_272381992"/>
    <path d="M455.39,435.605 C455.917,436.14 456.201,436.706 456.201,437.291 C456.201,438.995 453.81,440.534 449.958,441.64 C445.243,441.719 440.859,442.342 437.148,443.364 C436.556,443.378 435.957,443.387 435.352,443.387 C423.839,443.387 414.503,440.657 414.503,437.291 C414.503,435.66 416.697,434.178 420.269,433.084 C420.634,433.311 421.029,433.532 421.457,433.746 C426.11,436.067 433.065,437.542 440.834,437.542 C446.25,437.542 451.269,436.825 455.39,435.605 z" fill="#C0A062" id="_272382064"/>
    <path d="M407.734,441.742 C409.033,441.742 410.303,441.776 411.536,441.842 C412.22,443.415 413.614,444.847 416.027,446.051 C419.119,447.593 423.227,448.761 427.914,449.371 C425.585,451.994 417.433,453.931 407.734,453.931 C396.222,453.931 386.885,451.202 386.885,447.836 C386.885,444.471 396.222,441.742 407.734,441.742 z" fill="#C0A062" id="_272382136"/>
    <path d="M410.181,419.889 C413.631,419.889 416.884,420.134 419.751,420.568 C416.92,422.317 416.008,424.457 416.008,426.767 C416.008,428.434 416.526,430.011 417.856,431.417 C417.601,431.52 417.351,431.625 417.107,431.733 C414.939,431.956 412.609,432.079 410.181,432.079 C398.668,432.079 389.332,429.35 389.332,425.984 C389.332,422.619 398.668,419.889 410.181,419.889 z" fill="#C0A062" id="_272382208"/>
    <path d="M572.079,475.358 C569.669,477.945 561.575,479.849 551.962,479.849 C540.449,479.849 531.113,477.12 531.113,473.754 C531.113,471.305 536.062,469.192 543.194,468.223 C543.957,469.548 545.28,470.759 547.365,471.799 C552.018,474.121 558.973,475.596 566.743,475.596 C568.574,475.596 570.358,475.513 572.079,475.358 z" fill="#C0A062" id="_272382280"/>
    <path d="M544.084,486.251 C540.26,487.549 534.599,488.372 528.282,488.372 C516.77,488.372 507.434,485.642 507.434,482.276 C507.434,478.911 516.77,476.182 528.282,476.182 C528.282,478.813 529.575,481.224 533.31,483.087 C536.155,484.506 539.859,485.608 544.084,486.251 z" fill="#C0A062" id="_272382352"/>
    <path d="M553.557,436.231 C562.837,443.044 568.749,450.769 566.757,453.482 C564.765,456.195 555.624,452.87 546.343,446.057 C537.062,439.245 531.152,431.519 533.143,428.806 C535.135,426.093 544.277,429.418 553.557,436.231 z" fill="#C0A062" id="_272382424"/>
    <path d="M314.883,459.603 C313.662,460.662 312.985,461.829 312.985,463.053 C312.985,463.208 312.994,463.361 313.013,463.514 C311.644,463.428 310.234,463.384 308.793,463.384 C306.306,463.384 303.909,463.517 301.661,463.766 C303.271,462.029 304.63,460.324 305.691,458.725 C306.708,457.191 307.459,455.725 307.908,454.38 C308.611,456.498 311.141,458.31 314.883,459.603 z" fill="#C0A062" id="_272382496"/>
    <path d="M353.394,428.433 C364.907,428.433 374.243,431.162 374.243,434.528 C374.243,437.894 364.907,440.623 353.394,440.623 C352.234,440.623 351.096,440.594 349.987,440.541 C351.23,437.116 352.009,433.854 352.31,430.971 C352.407,430.043 352.443,429.203 352.422,428.439 C352.744,428.435 353.068,428.433 353.394,428.433 z" fill="#C0A062" id="_272382568"/>
    <path d="M299.51,435.239 C310.993,436.071 320.108,439.467 319.865,442.824 C319.622,446.181 310.112,448.229 298.63,447.397 C287.148,446.565 278.033,443.169 278.276,439.812 C278.519,436.454 288.028,434.407 299.51,435.239 z" fill="#C0A062" id="_272382640"/>
    <path d="M309.905,466.239 C321.418,466.239 330.754,468.968 330.754,472.333 C330.754,472.66 330.665,472.98 330.496,473.292 C324.993,473.882 320.208,475.231 316.803,477.059 C316.102,477.435 315.501,477.831 314.988,478.245 C313.36,478.364 311.659,478.428 309.905,478.428 C300.249,478.428 292.126,476.508 289.757,473.903 C291.436,472.821 293.126,471.605 294.794,470.261 C295.999,469.291 297.142,468.295 298.217,467.286 C301.551,466.625 305.573,466.239 309.905,466.239 z" fill="#C0A062" id="_272382712"/>
    <path d="M336.128,475.672 C338.416,475.672 340.616,475.78 342.675,475.979 C342.869,476.551 343.148,477.106 343.528,477.641 C341.791,478.196 340.229,478.845 338.883,479.567 C335.494,481.387 334.432,483.681 334.432,486.174 C334.432,486.743 334.493,487.301 334.626,487.846 C323.815,487.621 315.28,484.985 315.28,481.767 C315.28,478.401 324.616,475.672 336.128,475.672 z" fill="#C0A062" id="_272382784"/>
    <path d="M371.315,484.304 C369.032,485.961 368.274,487.927 368.274,490.035 C368.274,490.225 368.28,490.414 368.294,490.603 C365.306,491.087 361.869,491.363 358.212,491.363 C346.7,491.363 337.363,488.634 337.363,485.268 C337.363,483.171 340.99,481.32 346.51,480.224 C346.778,480.38 347.06,480.533 347.359,480.682 C352.012,483.003 358.967,484.478 366.737,484.478 C368.3,484.478 369.83,484.418 371.315,484.304 z" fill="#C0A062" id="_272382856"/>
    <path d="M405.206,485.018 C405.897,485.625 406.758,486.196 407.813,486.722 C409.36,487.494 411.16,488.17 413.16,488.732 C412.048,491.791 403.19,494.176 392.43,494.176 C380.918,494.176 371.582,491.447 371.582,488.081 C371.582,485.774 375.968,483.765 382.435,482.731 C386.883,484.354 392.683,485.339 399.026,485.339 C401.157,485.339 403.228,485.227 405.206,485.018 z" fill="#C0A062" id="_272382928"/>
    <path d="M446.518,479.703 C458.031,479.703 467.367,482.432 467.367,485.798 C467.367,489.164 458.031,491.893 446.518,491.893 C435.006,491.893 425.669,489.164 425.669,485.798 C425.669,482.432 435.006,479.703 446.518,479.703 z" fill="#C0A062" id="_272383000"/>
    <path d="M483.249,478.504 C494.762,478.504 504.098,481.233 504.098,484.599 C504.098,487.965 494.762,490.694 483.249,490.694 C478.325,490.694 473.801,490.193 470.233,489.359 C470.298,488.958 470.327,488.545 470.327,488.117 C470.327,485.609 469.04,483.097 466.045,481.156 C469.802,479.555 476.106,478.504 483.249,478.504 z" fill="#C0A062" id="_272383072"/>
    <path d="M498.12,422.245 C495.156,424.555 487.531,426.201 478.594,426.201 C473.001,426.201 467.922,425.556 464.177,424.507 C463.977,424.021 463.72,423.542 463.401,423.077 C465.583,422.162 467.058,421.157 468.004,420.036 C472.655,419.969 476.988,419.373 480.677,418.387 L480.871,418.486 C485.095,420.593 491.215,422.003 498.12,422.245 z" fill="#C0A062" id="_272383144"/>
    <path d="M464.654,428.246 C467.565,428.265 470.327,428.458 472.826,428.792 C472.014,429.125 471.255,429.482 470.555,429.858 C467.165,431.677 466.104,433.972 466.104,436.464 C466.104,437.841 466.457,439.156 467.329,440.364 C466.299,440.41 465.246,440.434 464.174,440.434 C462.396,440.434 460.672,440.369 459.026,440.246 C459.038,440.061 459.044,439.873 459.044,439.682 C459.044,438.062 458.507,436.441 457.32,434.973 C457.667,434.848 458.006,434.719 458.336,434.586 C462.633,432.858 464.326,430.812 464.654,428.246 z" fill="#C0A062" id="_272383216"/>
    <path d="M451.053,444.199 C462.566,444.199 471.902,446.928 471.902,450.294 C471.902,453.66 462.566,456.389 451.053,456.389 C439.541,456.389 430.205,453.66 430.205,450.294 C430.205,446.928 439.541,444.199 451.053,444.199 z" fill="#C0A062" id="_272383288"/>
    <path d="M445.872,407.34 C457.384,407.34 466.721,410.07 466.721,413.435 C466.721,415.607 462.83,417.514 456.977,418.593 C456.665,418.479 456.344,418.369 456.01,418.264 C451.778,416.929 446.524,416.138 440.834,416.138 C440.059,416.138 439.294,416.152 438.537,416.181 C438.545,416.027 438.549,415.872 438.549,415.715 C438.549,413.08 437.128,410.442 433.8,408.465 C437.207,407.756 441.373,407.34 445.872,407.34 z" fill="#C0A062" id="_272383360"/>
    <path d="M499.767,403.593 C511.279,403.593 520.616,406.322 520.616,409.688 C520.616,413.054 511.279,415.783 499.767,415.783 C488.254,415.783 478.918,413.054 478.918,409.688 C478.918,406.322 488.254,403.593 499.767,403.593 z" fill="#C0A062" id="_272383432"/>
    <path d="M480.483,402.992 C481.402,403.214 482.253,403.457 483.03,403.721 C482.042,404.107 481.126,404.526 480.294,404.973 C476.904,406.792 475.843,409.086 475.843,411.579 C475.843,412.138 475.902,412.686 476.029,413.221 C474.033,413.494 471.864,413.677 469.585,413.752 C468.721,411.019 466.121,408.487 461.211,406.938 C458.003,405.926 454.208,405.226 450.08,404.947 C451.445,404.38 452.536,403.778 453.396,403.135 C453.618,403.078 453.844,403.021 454.074,402.967 C457.931,403.966 462.47,404.543 467.328,404.543 C472.144,404.543 476.647,403.976 480.483,402.992 z" fill="#C0A062" id="_272383504"/>
    <path d="M405.929,383.036 C414.881,383.036 422.516,384.686 425.47,387.002 C420.212,387.623 415.643,388.941 412.358,390.704 C409.956,391.993 408.723,393.521 408.209,395.189 C407.46,395.213 406.699,395.226 405.929,395.226 C401.289,395.226 397.005,394.782 393.541,394.033 C393.904,393.198 394.058,392.305 394.058,391.341 C394.058,389.087 393.019,386.831 390.637,384.989 C394.445,383.788 399.886,383.036 405.929,383.036 z" fill="#C0A062" id="_272383576"/>
    <path d="M432.005,389.853 C443.517,389.853 452.854,392.583 452.854,395.948 C452.854,399.314 443.517,402.043 432.005,402.043 C420.492,402.043 411.156,399.314 411.156,395.948 C411.156,392.583 420.492,389.853 432.005,389.853 z" fill="#C0A062" id="_272383648"/>
    <path d="M466.559,385.684 C478.072,385.684 487.408,388.413 487.408,391.778 C487.408,395.144 478.072,397.873 466.559,397.873 C462.774,397.873 459.226,397.578 456.166,397.062 C455.883,393.893 453.48,390.799 448.109,388.939 C451.602,387.003 458.553,385.684 466.559,385.684 z" fill="#C0A062" id="_272383720"/>
    <path d="M445.174,373.778 C456.687,373.778 466.023,376.507 466.023,379.873 C466.023,381.166 464.644,382.364 462.295,383.35 C457.931,383.721 453.973,384.564 450.732,385.748 C448.963,385.891 447.099,385.968 445.174,385.968 C433.662,385.968 424.326,383.239 424.326,379.873 C424.326,376.507 433.662,373.778 445.174,373.778 z" fill="#C0A062" id="_272383792"/>
    <path d="M416.899,368.645 C424.83,368.645 431.727,369.939 435.251,371.845 C431.432,372.56 428.108,373.66 425.559,375.028 C422.595,376.619 421.41,378.573 421.16,380.706 C419.784,380.79 418.359,380.834 416.899,380.834 C405.386,380.834 396.05,378.105 396.05,374.739 C396.05,371.374 405.386,368.645 416.899,368.645 z" fill="#C0A062" id="_272383864"/>
    <path d="M330.626,415.892 C338.853,415.892 345.966,417.285 349.358,419.309 C349.005,419.938 348.781,420.593 348.659,421.268 C345.714,420.142 341.831,420.902 337.565,424.81 C336.533,425.755 335.497,426.814 334.473,427.978 C333.226,428.046 331.941,428.082 330.626,428.082 C319.114,428.082 309.777,425.353 309.777,421.987 C309.777,418.622 319.114,415.892 330.626,415.892 z" fill="#C0A062" id="_272383936"/>
    <path d="M390.174,399.185 C401.167,399.185 410.176,401.673 410.966,404.828 C406.069,405.084 401.668,405.864 398.29,406.991 L398.291,406.993 C394.975,408.099 392.569,409.601 391.484,411.362 C391.05,411.37 390.614,411.375 390.174,411.375 C382.734,411.375 376.205,410.234 372.516,408.52 C372.674,408.087 372.755,407.642 372.755,407.186 C372.755,405.748 371.947,404.421 370.494,403.264 C373.34,400.889 381.076,399.185 390.174,399.185 z" fill="#C0A062" id="_272384008"/>
    <path d="M369.452,383.334 C380.965,383.334 390.302,386.063 390.302,389.428 C390.302,392.794 380.965,395.523 369.452,395.523 C357.94,395.523 348.604,392.794 348.604,389.428 C348.604,386.063 357.94,383.334 369.452,383.334 z" fill="#C0A062" id="_272384080"/>
    <path d="M349.023,401.098 C360.536,401.098 369.872,403.828 369.872,407.193 C369.872,410.559 360.536,413.288 349.023,413.288 C337.511,413.288 328.174,410.559 328.174,407.193 C328.174,403.828 337.511,401.098 349.023,401.098 z" fill="#C0A062" id="_272384152"/>
    <path d="M373.024,414.682 C383.546,414.682 392.248,416.961 393.668,419.923 C392.401,420.381 391.243,420.891 390.211,421.445 C388.019,422.622 386.8,423.997 386.213,425.496 C382.619,426.355 378.028,426.872 373.024,426.872 C361.512,426.872 352.175,424.143 352.175,420.777 C352.175,417.411 361.512,414.682 373.024,414.682 z" fill="#C0A062" id="_272384224"/>
    <path d="M151.102,360.268 C147.086,352.205 144.056,344.466 141.854,337.475 C130.447,301.241 134.482,245.624 171.338,201.499 C192.724,175.896 226.827,156.829 272.042,142.33 C275.629,142.303 279.208,142.298 282.777,142.316 C270.897,157.053 255.107,166.411 238.817,175.054 C258.386,168.658 275.906,159.218 288.434,142.365 C297.324,142.474 306.153,142.74 314.907,143.202 C296.532,157.616 283.912,174.187 277.051,192.919 C288.377,170.654 304.85,155.254 324.843,144.546 C328.117,150.762 328.658,158.15 328.808,165.704 C330.854,159.156 332.014,152.262 330.27,144.23 C349.406,145.796 368.127,148.446 386.263,152.626 C393.257,166.679 402.154,179.982 415.795,191.416 C405.693,179.278 397.644,166.685 391.048,153.768 C393.891,154.47 396.718,155.212 399.531,155.994 C407.961,166.547 415.289,177.446 420.804,188.912 C417.092,178.218 411.421,167.61 403.42,157.103 C406.902,158.123 410.36,159.208 413.791,160.361 C484.519,203.563 491.729,293.597 482.564,337.953 C479.823,351.216 474.816,364.375 467.607,376.798 C466.116,375.108 463.676,373.967 460.468,372.991 C455.386,371.444 448.122,370.616 438.765,371.351 C428.502,363.513 410.019,365.715 402.533,367.705 C401.978,367.853 401.427,368.008 400.887,368.172 C399.175,366.903 397.344,365.679 395.38,364.508 C403.542,361.144 399.591,353.343 396.49,351.07 C390.981,347.032 377.711,344.97 363.008,347.997 C362.422,347.643 361.867,347.367 361.324,347.127 C368.384,345.251 368.323,338.008 365.653,334.937 C362.982,331.866 356.825,328.95 345.301,328.7 C346.054,322.94 342.724,320.476 336.591,318.609 C331.509,317.062 324.245,316.235 314.887,316.969 C304.625,309.131 286.142,311.333 278.656,313.324 C272.05,315.08 266.037,317.795 270.609,326.812 C267.856,327.428 265.423,328.206 263.211,329.098 C249.867,324.342 235.354,326.571 229.283,328.687 C222.184,331.161 218.225,336.471 226.396,344.028 C216.505,344.03 209.095,345.362 204.767,348.154 C201.474,350.278 200.161,353.888 202.711,358.948 C196.002,359.563 190.701,360.714 187.293,362.582 C176.829,355.894 159.6,357.99 152.437,359.894 C151.988,360.014 151.542,360.138 151.102,360.268 z" fill="#BB825B" id="_272384296"/>
    <path d="M367.043,373.699 C370.548,373.699 373.849,373.951 376.749,374.398 C378.523,377.048 380.979,379.826 383.975,382.499 C371.549,379.068 358.761,381.118 353.159,383.07 C352.525,383.291 351.916,383.534 351.338,383.801 C348.136,382.729 346.194,381.328 346.194,379.794 C346.194,376.428 355.531,373.699 367.043,373.699 z" fill="#C0A062" id="_272384368"/>
    <path d="M393.833,381.344 C393.331,380.995 392.827,380.637 392.324,380.267 C386.481,375.978 381.976,371.329 379.935,367.795 C384.443,367.528 388.57,366.76 391.993,365.63 C393.883,366.651 395.874,367.872 397.89,369.267 C393.6,371.192 391.046,374.408 394.487,381.194 C394.267,381.243 394.049,381.293 393.833,381.344 z" fill="#C0A062" id="_272384440"/>
    <path d="M325.708,411.184 C322.445,413.305 315.153,414.783 306.683,414.783 C295.171,414.783 285.835,412.054 285.835,408.688 C285.835,407.895 286.355,407.136 287.299,406.44 C292.694,406.127 297.547,405.097 301.304,403.586 C302.036,403.292 302.692,402.988 303.279,402.674 C303.706,402.654 304.139,402.637 304.573,402.624 C305.341,403.431 306.375,404.181 307.734,404.859 C312.013,406.993 318.239,408.413 325.254,408.627 C325.276,409.424 325.424,410.276 325.708,411.184 z" fill="#C0A062" id="_272384512"/>
    <path d="M327.177,389.817 C335.892,389.817 343.358,391.38 346.473,393.601 C346.842,394.373 347.352,395.178 348.021,396.017 C347.969,396.903 347.27,397.742 346.057,398.498 C338.909,398.808 333.333,399.944 329.611,401.964 C328.812,401.991 328.001,402.006 327.177,402.006 C315.664,402.006 306.328,399.277 306.328,395.911 C306.328,392.546 315.664,389.817 327.177,389.817 z" fill="#C0A062" id="_272384584"/>
    <path d="M306.79,424.958 C305.995,425.224 305.239,425.511 304.527,425.815 C301.43,423.742 297.318,421.272 293.307,419.606 C297.244,420.721 301.96,421.382 307.037,421.414 C306.638,422.53 306.525,423.748 306.79,424.958 z" fill="#C0A062" id="_272384656"/>
    <path d="M233.153,470.692 C242.311,470.692 250.09,472.418 252.89,474.818 C252.814,476.023 252.975,477.164 253.475,478.151 C251.355,480.86 243.06,482.882 233.153,482.882 C228.228,482.882 223.704,482.381 220.136,481.546 C220.202,481.145 220.231,480.732 220.231,480.305 C220.231,477.796 218.944,475.285 215.948,473.344 C219.706,471.742 226.01,470.692 233.153,470.692 z" fill="#C0A062" id="_272384728"/>
    <path d="M273.318,417.012 C275.315,418.479 277.155,419.986 278.795,421.478 C277.476,423.559 277.266,426.169 279.105,429.654 C279.903,431.165 280.956,432.746 282.233,434.348 C281.848,434.485 281.478,434.627 281.125,434.777 C277.173,433.747 271.665,430.92 266.104,426.838 C260.262,422.55 255.757,417.9 253.716,414.366 C258.224,414.099 262.351,413.331 265.773,412.201 C268.178,413.5 270.742,415.121 273.318,417.012 z" fill="#C0A062" id="_272384800"/>
    <path d="M303.462,428.422 C303.695,428.593 303.925,428.764 304.154,428.936 C301.764,429.707 299.683,430.86 297.969,432.467 C294.95,432.379 292.172,432.485 289.676,432.76 C284.394,427.699 281.583,422.992 283.048,420.997 C285.04,418.284 294.182,421.609 303.462,428.422 z" fill="#C0A062" id="_272384872"/>
    <path d="M272.112,451.81 C265.384,450.799 260.78,448.751 260.78,446.387 C260.78,443.622 267.081,441.287 275.712,440.541 C275.294,442.994 276.102,445.892 278.696,447.999 C276.404,449.236 274.201,450.503 272.112,451.81 z" fill="#C0A062" id="_272384944"/>
    <path d="M255.464,454.67 C257.891,454.67 260.22,454.792 262.386,455.015 C262.848,455.325 263.364,455.623 263.936,455.909 C264.379,456.13 264.842,456.342 265.326,456.548 C261.676,459.428 258.629,462.518 256.402,465.891 C256.199,466.198 255.994,466.522 255.791,466.859 L255.464,466.86 C249.379,466.86 243.904,466.097 240.093,464.881 C241.384,464.235 242.262,463.244 242.905,461.962 C243.731,460.315 243.937,458.355 243.272,456.212 C246.239,455.939 249.012,455.449 251.492,454.781 C252.778,454.708 254.105,454.67 255.464,454.67 z" fill="#C0A062" id="_272385016"/>
    <path d="M288.158,479.817 C285.196,480.289 281.799,480.559 278.187,480.559 C274.187,480.559 270.45,480.228 267.275,479.657 C268.275,479.248 269.307,478.775 270.369,478.246 C272.911,480.655 277.622,480.39 285.447,476.282 C285.87,477.558 286.722,478.751 288.158,479.817 z" fill="#C0A062" id="_272385088"/>
    <path d="M414.214,407.482 C425.727,407.482 435.063,410.211 435.063,413.577 C435.063,414.637 434.136,415.633 432.507,416.501 C429.248,416.887 426.318,417.515 423.909,418.319 C423.628,418.413 423.354,418.509 423.087,418.608 C419.355,417.732 414.828,417.217 409.963,417.217 C406.356,417.217 402.935,417.5 399.886,418.003 C395.871,416.892 393.366,415.32 393.366,413.577 C393.366,410.211 402.702,407.482 414.214,407.482 z" fill="#C0A062" id="_272385160"/>
    <path d="M440.151,418.744 C451.664,418.744 461,421.473 461,424.839 C461,428.205 451.664,430.934 440.151,430.934 C428.639,430.934 419.302,428.205 419.302,424.839 C419.302,421.473 428.639,418.744 440.151,418.744 z" fill="#C0A062" id="_272385232"/>
    <path d="M312.779,31.969 C310.424,35.899 312.407,44.651 312.307,51.031 C312.2,57.822 311.15,64.192 305.934,68.7 C319.532,72.491 326.627,67.227 328.531,62.412 C331.058,56.022 328.923,41.368 312.779,31.969 z" fill="#926B4C" id="_272385304"/>
    <path d="M394.59,33.805 C388.985,42.726 381.077,49.609 373.553,46.494 C379.03,40.14 386.223,36.16 394.59,33.805 z" fill="#926B4C" id="_272385376"/>
    <path d="M439.837,63.357 C435.985,59.472 429.599,58.122 421.304,58.682 C425.042,62.398 430.317,64.755 439.837,63.357 z" fill="#926B4C" id="_272385448"/>
    <path d="M242.49,57.681 C263.731,73.493 280.979,92.003 285.733,118.955 C289.169,117.81 292.641,116.727 296.152,115.711 C293.998,97.029 284.968,81.149 271.207,67.197 C286.127,77.936 297.735,91.873 300.294,114.548 C304.496,113.405 308.753,112.359 313.072,111.419 C314.003,99.476 310.343,88.131 303.263,77.215 C312.78,85.698 317.832,96.733 318.421,110.318 C321.507,109.718 324.623,109.171 327.774,108.684 C328.894,100.076 329.719,91.107 330.478,82.057 C331.408,90.632 332.463,99.183 331.509,108.136 C335.772,107.544 340.096,107.058 344.487,106.687 C348.224,80.908 360.494,70.065 374.556,62.355 C360.724,75.822 349.542,89.805 350.912,106.229 C360.416,105.678 370.231,105.666 380.399,106.266 C389.201,81.518 405.338,70.828 424.811,66.529 C418.153,63.246 415.215,59.022 414.069,54.698 C412.428,48.501 414.469,42.1 414.518,37.975 C414.548,35.501 413.861,33.846 411.231,33.547 C408.294,33.213 404.227,33.013 400.135,34.728 C394.435,37.116 395.298,45.274 383.467,50.793 C377.743,53.463 373.887,54.641 368.407,50.892 C363.222,47.344 361.622,41.687 360.867,35.608 C359.401,23.807 352.777,7.122 338.993,7.425 C327.513,10.048 318.81,15.772 311.111,22.619 C312.755,29.822 324.251,33.444 327.944,38.93 C334.992,49.402 335.774,59.375 334.438,64.985 C332.641,72.528 321.75,79.26 303.096,72.874 C286.608,68.089 290.265,48.115 283.795,48.368 C279.509,48.536 279.254,57.851 270.873,63.357 C262.46,67.81 252.819,56.378 242.49,57.681 z" fill="#BB825B" id="_272385520"/>
    <path d="M445.682,347.524 C462.605,312.351 459.932,272.28 448.353,229.983 C469.206,261.37 471.342,330.526 445.682,347.524 z" fill="#000000" id="_272385592"/>
    <path d="M266.031,139.826 C269.668,139.584 273.295,139.383 276.915,139.224 L277.815,139.186 C277.724,137.548 277.575,135.942 277.355,134.373 C277.021,132.002 276.526,129.715 275.835,127.529 C275.6,127.619 275.37,127.709 275.141,127.802 C268.927,130.327 265.273,134.124 266.031,139.826 z" fill="#957F66" id="_272385664"/>
    <path d="M279.794,139.106 C282.355,139.009 284.912,138.933 287.464,138.878 C287.373,137.347 287.229,135.843 287.022,134.372 C286.566,131.13 285.808,128.042 284.657,125.158 C282.154,125.629 279.819,126.195 277.704,126.875 C278.44,129.188 278.964,131.602 279.316,134.101 C279.545,135.736 279.7,137.406 279.794,139.106 z" fill="#957F66" id="_272385736"/>
    <path d="M289.445,138.84 C292.054,138.795 294.659,138.773 297.26,138.773 C297.175,136.94 297.017,135.144 296.771,133.395 C296.298,130.024 295.497,126.822 294.269,123.841 C291.624,124.095 289.067,124.412 286.645,124.809 C287.774,127.737 288.524,130.847 288.982,134.1 C289.2,135.65 289.35,137.231 289.445,138.84 z" fill="#957F66" id="_272385808"/>
    <path d="M299.244,138.777 C301.79,138.789 304.33,138.822 306.868,138.877 C306.789,136.863 306.626,134.893 306.357,132.978 C305.87,129.52 305.041,126.24 303.758,123.193 C301.24,123.307 298.753,123.458 296.329,123.658 C297.496,126.636 298.267,129.806 298.734,133.123 C298.993,134.965 299.157,136.853 299.244,138.777 z" fill="#957F66" id="_272385880"/>
    <path d="M308.851,138.925 C311.428,138.992 314,139.083 316.568,139.196 C316.512,136.8 316.341,134.465 316.023,132.206 C315.563,128.935 314.796,125.823 313.629,122.918 C311.039,122.953 308.438,123.013 305.859,123.108 C307.055,126.125 307.843,129.34 308.317,132.707 C308.601,134.729 308.771,136.805 308.851,138.925 z" fill="#957F66" id="_272385952"/>
    <path d="M318.551,139.288 C321.12,139.413 323.685,139.562 326.245,139.733 C326.2,137.178 326.027,134.69 325.69,132.289 C325.223,128.971 324.441,125.816 323.245,122.875 C320.786,122.868 318.275,122.871 315.742,122.894 C316.818,125.748 317.539,128.774 317.983,131.934 C318.319,134.315 318.496,136.773 318.551,139.288 z" fill="#957F66" id="_272386024"/>
    <path d="M328.228,139.869 C330.798,140.053 333.364,140.261 335.925,140.493 C335.92,137.495 335.75,134.583 335.358,131.789 C334.92,128.676 334.204,125.707 333.13,122.922 C330.651,122.912 328.05,122.893 325.374,122.881 C326.469,125.764 327.202,128.821 327.651,132.017 C328.008,134.555 328.187,137.179 328.228,139.869 z" fill="#957F66" id="_272386096"/>
    <path d="M337.906,140.677 C339.734,140.851 341.56,141.039 343.383,141.239 C344.12,141.319 344.856,141.401 345.592,141.486 C345.601,138.359 345.435,135.325 345.026,132.417 C344.559,129.101 343.777,125.948 342.582,123.007 C340.609,122.955 338.652,122.929 336.711,122.929 L335.245,122.928 C336.228,125.65 336.898,128.523 337.319,131.517 C337.734,134.465 337.907,137.529 337.906,140.677 z" fill="#957F66" id="_272386168"/>
    <path d="M347.572,141.72 C350.139,142.028 352.701,142.36 355.259,142.718 C355.241,139.846 355.07,137.055 354.693,134.372 C354.144,130.466 353.156,126.786 351.571,123.414 C349.271,123.268 346.992,123.155 344.733,123.075 C345.816,125.939 346.541,128.975 346.987,132.147 C347.42,135.224 347.589,138.427 347.572,141.72 z" fill="#957F66" id="_272386240"/>
    <path d="M357.241,142.998 C359.806,143.37 362.367,143.767 364.922,144.19 C364.961,140.798 364.802,137.511 364.361,134.371 C363.856,130.78 362.981,127.381 361.613,124.236 C358.987,123.973 356.386,123.748 353.81,123.563 C355.226,126.848 356.132,130.381 356.655,134.099 C357.058,136.966 357.233,139.942 357.241,142.998 z" fill="#957F66" id="_272386312"/>
    <path d="M366.898,144.523 C369.455,144.96 372.006,145.421 374.553,145.909 C374.674,141.908 374.544,138.04 374.028,134.373 C373.586,131.232 372.861,128.236 371.771,125.43 C369.108,125.074 366.468,124.753 363.852,124.471 C365.055,127.497 365.847,130.722 366.322,134.101 C366.792,137.443 366.952,140.931 366.898,144.523 z" fill="#957F66" id="_272386384"/>
    <path d="M376.522,146.289 C379.096,146.796 381.665,147.33 384.229,147.89 C384.332,144.014 384.195,140.264 383.695,136.705 C383.202,133.202 382.357,129.881 381.046,126.801 C378.678,126.418 376.327,126.062 373.994,125.734 C374.934,128.389 375.579,131.187 375.988,134.099 C376.535,137.986 376.663,142.073 376.522,146.289 z" fill="#957F66" id="_272386456"/>
    <path d="M386.2,148.327 C388.765,148.903 391.326,149.504 393.881,150.133 C394.014,146.053 393.888,142.108 393.363,138.373 C392.872,134.881 392.03,131.57 390.726,128.498 C388.244,128.031 385.78,127.591 383.334,127.18 C384.454,130.097 385.201,133.195 385.656,136.435 C386.19,140.23 386.325,144.216 386.2,148.327 z" fill="#957F66" id="_272386528"/>
    <path d="M395.846,150.621 C398.411,151.267 400.97,151.94 403.523,152.642 C403.694,148.317 403.585,144.14 403.03,140.195 C402.546,136.751 401.721,133.482 400.446,130.445 C397.959,129.917 395.49,129.414 393.036,128.938 C394.137,131.828 394.873,134.895 395.324,138.1 C395.885,142.089 396.005,146.288 395.846,150.621 z" fill="#957F66" id="_272386600"/>
    <path d="M405.484,153.186 C408.068,153.911 410.646,154.665 413.219,155.446 C413.346,151.402 413.219,147.493 412.698,143.789 C412.127,139.73 411.083,135.914 409.388,132.436 C407.171,131.92 404.966,131.423 402.773,130.945 C403.836,133.782 404.55,136.787 404.992,139.924 C405.585,144.14 405.685,148.59 405.484,153.186 z" fill="#957F66" id="_272386672"/>
    <path d="M415.232,154.147 C426.67,144.977 427.082,137.699 411.864,133.099 C413.251,136.351 414.142,139.843 414.659,143.517 C415.138,146.923 415.295,150.482 415.232,154.147 z" fill="#957F66" id="_272386744"/>
    <path d="M395.928,110.44 C394.457,110.338 392.995,110.246 391.541,110.16 C390.684,113.28 390.282,116.569 390.228,119.984 C390.205,121.431 390.244,122.9 390.337,124.389 C393.999,125.113 397.627,125.893 401.222,126.729 C401.005,124.431 400.901,122.171 400.937,119.957 C400.978,117.379 401.209,114.865 401.673,112.43 C399.976,111.705 398.067,111.04 395.928,110.44 z" fill="#957F66" id="_272386816"/>
    <path d="M389.522,110.046 C385.963,109.854 382.458,109.712 379.005,109.618 C378.041,112.899 377.595,116.37 377.537,119.984 C377.526,120.691 377.531,121.403 377.548,122.121 C381.175,122.692 384.768,123.318 388.329,123.998 C388.255,122.636 388.225,121.288 388.247,119.957 C388.301,116.527 388.693,113.212 389.522,110.046 z" fill="#957F66" id="_272386888"/>
    <path d="M376.961,109.567 C373.367,109.489 369.831,109.465 366.353,109.495 C365.364,112.812 364.907,116.325 364.848,119.984 L364.844,120.367 C368.449,120.795 372.021,121.278 375.561,121.813 C375.549,121.191 375.548,120.572 375.558,119.957 C375.615,116.354 376.044,112.878 376.961,109.567 z" fill="#957F66" id="_272386960"/>
    <path d="M364.285,109.519 C360.643,109.573 357.068,109.687 353.556,109.86 C352.718,112.801 352.29,115.891 352.181,119.1 C355.775,119.393 359.336,119.739 362.865,120.138 L362.868,119.957 C362.925,116.337 363.358,112.844 364.285,109.519 z" fill="#957F66" id="_272387032"/>
    <path d="M351.475,109.97 C347.783,110.179 344.163,110.455 340.616,110.797 C340.006,113.206 339.66,115.712 339.528,118.297 C343.119,118.46 346.679,118.677 350.207,118.944 C350.318,115.847 350.715,112.847 351.475,109.97 z" fill="#957F66" id="_272387104"/>
    <path d="M338.529,111.007 C334.791,111.399 331.135,111.867 327.561,112.41 C327.197,114.207 326.97,116.054 326.858,117.944 C330.454,117.982 334.017,118.072 337.55,118.213 C337.675,115.743 337.989,113.336 338.529,111.007 z" fill="#957F66" id="_272387176"/>
    <path d="M325.481,112.737 C321.717,113.346 318.046,114.04 314.467,114.821 C314.325,115.875 314.226,116.943 314.164,118.027 C317.765,117.943 321.335,117.911 324.875,117.929 C324.976,116.164 325.173,114.431 325.481,112.737 z" fill="#957F66" id="_272387320"/>
    <path d="M312.414,115.281 C308.114,116.268 303.95,117.382 299.924,118.622 C304.048,118.375 308.132,118.195 312.177,118.079 C312.228,117.137 312.306,116.204 312.414,115.281 z" fill="#957F66" id="_272387392"/>
    <path d="M403.258,127.209 C406.462,127.976 409.639,128.786 412.79,129.64 C413.929,122.981 411.563,117.325 403.527,113.288 C403.144,115.454 402.952,117.691 402.915,119.983 C402.878,122.335 403.004,124.748 403.258,127.209 z" fill="#957F66" id="_272387464"/>
    <path d="M212.564,201.25 C192.965,223.521 180.493,251.137 175.149,284.098 C167.131,248.465 179.602,220.849 212.564,201.25 z" fill="#000000" id="_272387536"/>
  </g>
</svg>
